<svg width="1440" height="752" viewBox="0 0 1440 752" fill="none" xmlns="http://www.w3.org/2000/svg">
<rect width="1920" height="751.34" transform="translate(-201)" fill="#F91C2E"/>
<rect x="-201" width="1920" height="751.34" fill="url(#paint0_linear_1_29)"/>
<g opacity="0.5">
<rect x="-201" width="1920" height="751.34" fill="url(#paint1_radial_1_29)"/>
<rect x="-201" width="1920" height="751.34" fill="url(#paint2_radial_1_29)"/>
<rect x="-201" width="1920" height="751.34" fill="url(#paint3_radial_1_29)"/>
<rect x="-201" width="1920" height="751.34" fill="url(#paint4_radial_1_29)"/>
</g>
<path d="M225.21 611.455C225.148 611.204 225.051 610.984 224.918 610.794C224.786 610.6 224.62 610.437 224.421 610.304C224.227 610.167 224 610.065 223.74 609.999C223.484 609.928 223.202 609.892 222.894 609.892C222.231 609.892 221.666 610.051 221.197 610.368C220.733 610.685 220.378 611.142 220.132 611.739C219.89 612.336 219.769 613.055 219.769 613.898C219.769 614.75 219.885 615.48 220.117 616.086C220.349 616.692 220.695 617.156 221.154 617.478C221.614 617.8 222.184 617.961 222.866 617.961C223.467 617.961 223.967 617.873 224.365 617.698C224.767 617.523 225.068 617.274 225.266 616.952C225.465 616.63 225.565 616.251 225.565 615.816L226.247 615.887H222.923V613.074H229.372V615.091C229.372 616.417 229.09 617.551 228.526 618.493C227.968 619.431 227.196 620.15 226.211 620.652C225.231 621.15 224.106 621.398 222.838 621.398C221.422 621.398 220.179 621.097 219.109 620.496C218.039 619.895 217.203 619.038 216.602 617.925C216.005 616.812 215.707 615.489 215.707 613.955C215.707 612.752 215.889 611.687 216.254 610.759C216.623 609.831 217.134 609.047 217.788 608.408C218.441 607.764 219.196 607.279 220.053 606.952C220.91 606.621 221.829 606.455 222.809 606.455C223.671 606.455 224.471 606.578 225.21 606.824C225.953 607.066 226.609 607.411 227.177 607.861C227.75 608.306 228.212 608.834 228.562 609.445C228.912 610.056 229.125 610.726 229.201 611.455H225.21ZM236.497 621.398C235.332 621.398 234.328 621.176 233.486 620.73C232.648 620.281 232.001 619.637 231.547 618.799C231.097 617.956 230.872 616.947 230.872 615.773C230.872 614.646 231.099 613.661 231.554 612.819C232.008 611.976 232.65 611.32 233.478 610.851C234.307 610.382 235.285 610.148 236.412 610.148C237.236 610.148 237.981 610.276 238.649 610.532C239.317 610.787 239.887 611.159 240.361 611.647C240.834 612.13 241.199 612.717 241.454 613.408C241.71 614.099 241.838 614.878 241.838 615.745V616.654H232.094V614.495H238.23C238.225 614.182 238.145 613.908 237.988 613.671C237.837 613.429 237.631 613.242 237.371 613.11C237.115 612.972 236.824 612.904 236.497 612.904C236.18 612.904 235.889 612.972 235.623 613.11C235.358 613.242 235.145 613.427 234.984 613.664C234.828 613.9 234.745 614.177 234.736 614.495V616.824C234.736 617.175 234.809 617.487 234.956 617.762C235.103 618.036 235.313 618.252 235.588 618.408C235.862 618.564 236.194 618.642 236.582 618.642C236.852 618.642 237.098 618.605 237.321 618.529C237.548 618.453 237.742 618.344 237.903 618.202C238.064 618.055 238.183 617.88 238.258 617.676H241.838C241.715 618.434 241.424 619.092 240.964 619.651C240.505 620.205 239.897 620.636 239.139 620.944C238.386 621.247 237.505 621.398 236.497 621.398ZM249.943 610.29V613.131H242.756V610.29H249.943ZM244.148 607.676H248.068V617.691C248.068 617.842 248.094 617.97 248.146 618.074C248.199 618.174 248.279 618.249 248.388 618.301C248.497 618.349 248.637 618.373 248.807 618.373C248.925 618.373 249.063 618.358 249.219 618.33C249.38 618.301 249.498 618.278 249.574 618.259L250.142 621.015C249.967 621.067 249.716 621.131 249.389 621.206C249.067 621.282 248.684 621.332 248.239 621.355C247.339 621.403 246.584 621.31 245.973 621.078C245.362 620.842 244.903 620.47 244.595 619.963C244.288 619.457 244.138 618.822 244.148 618.06V607.676ZM265.499 613.841H261.891C261.872 613.619 261.794 613.427 261.657 613.266C261.519 613.105 261.342 612.982 261.124 612.897C260.911 612.807 260.674 612.762 260.414 612.762C260.078 612.762 259.789 612.823 259.547 612.946C259.306 613.069 259.188 613.245 259.192 613.472C259.188 613.633 259.256 613.782 259.398 613.919C259.545 614.057 259.827 614.163 260.243 614.239L262.459 614.637C263.577 614.84 264.408 615.184 264.952 615.667C265.501 616.145 265.778 616.786 265.783 617.591C265.778 618.368 265.546 619.042 265.087 619.615C264.633 620.184 264.01 620.624 263.219 620.936C262.433 621.244 261.536 621.398 260.527 621.398C258.861 621.398 257.556 621.057 256.614 620.375C255.677 619.694 255.153 618.794 255.045 617.676H258.937C258.989 618.022 259.159 618.29 259.448 618.479C259.742 618.664 260.111 618.756 260.556 618.756C260.916 618.756 261.212 618.694 261.444 618.571C261.68 618.448 261.801 618.273 261.806 618.046C261.801 617.837 261.697 617.672 261.493 617.549C261.295 617.426 260.982 617.326 260.556 617.25L258.624 616.909C257.511 616.715 256.678 616.346 256.124 615.801C255.57 615.257 255.295 614.556 255.3 613.699C255.295 612.942 255.494 612.3 255.897 611.775C256.304 611.244 256.884 610.842 257.637 610.567C258.394 610.288 259.292 610.148 260.329 610.148C261.905 610.148 263.148 610.475 264.057 611.128C264.971 611.782 265.452 612.686 265.499 613.841ZM273.791 610.29V613.131H266.603V610.29H273.791ZM267.996 607.676H271.916V617.691C271.916 617.842 271.942 617.97 271.994 618.074C272.046 618.174 272.127 618.249 272.236 618.301C272.344 618.349 272.484 618.373 272.655 618.373C272.773 618.373 272.91 618.358 273.067 618.33C273.228 618.301 273.346 618.278 273.422 618.259L273.99 621.015C273.815 621.067 273.564 621.131 273.237 621.206C272.915 621.282 272.532 621.332 272.086 621.355C271.187 621.403 270.432 621.31 269.821 621.078C269.21 620.842 268.751 620.47 268.443 619.963C268.135 619.457 267.986 618.822 267.996 618.06V607.676ZM278.431 621.37C277.735 621.37 277.119 621.256 276.584 621.029C276.054 620.797 275.637 620.446 275.334 619.978C275.031 619.509 274.879 618.912 274.879 618.188C274.879 617.591 274.981 617.082 275.185 616.661C275.388 616.235 275.673 615.887 276.037 615.617C276.402 615.347 276.825 615.141 277.308 614.999C277.796 614.857 278.322 614.765 278.885 614.722C279.496 614.675 279.986 614.618 280.355 614.551C280.729 614.48 280.999 614.383 281.165 614.26C281.331 614.132 281.414 613.964 281.414 613.756V613.728C281.414 613.444 281.305 613.226 281.087 613.074C280.869 612.923 280.59 612.847 280.249 612.847C279.875 612.847 279.569 612.93 279.333 613.096C279.101 613.257 278.961 613.505 278.914 613.841H275.306C275.353 613.178 275.564 612.568 275.938 612.009C276.316 611.445 276.868 610.996 277.592 610.659C278.317 610.319 279.221 610.148 280.306 610.148C281.087 610.148 281.788 610.24 282.408 610.425C283.028 610.605 283.556 610.858 283.992 611.185C284.427 611.507 284.759 611.886 284.986 612.321C285.218 612.752 285.334 613.221 285.334 613.728V621.199H281.669V619.665H281.584C281.366 620.072 281.101 620.401 280.789 620.652C280.481 620.903 280.128 621.086 279.73 621.199C279.337 621.313 278.904 621.37 278.431 621.37ZM279.709 618.898C280.007 618.898 280.287 618.837 280.547 618.713C280.812 618.59 281.028 618.413 281.193 618.181C281.359 617.949 281.442 617.667 281.442 617.336V616.426C281.338 616.469 281.226 616.509 281.108 616.547C280.994 616.585 280.871 616.621 280.739 616.654C280.611 616.687 280.474 616.718 280.327 616.746C280.185 616.775 280.036 616.801 279.879 616.824C279.576 616.872 279.328 616.95 279.134 617.059C278.944 617.163 278.802 617.293 278.708 617.449C278.618 617.601 278.573 617.771 278.573 617.961C278.573 618.264 278.679 618.496 278.892 618.657C279.105 618.818 279.378 618.898 279.709 618.898ZM287.207 621.199V610.29H291.014V612.364H291.128C291.327 611.597 291.641 611.036 292.072 610.681C292.508 610.326 293.017 610.148 293.599 610.148C293.77 610.148 293.938 610.162 294.103 610.191C294.274 610.214 294.437 610.25 294.594 610.297V613.642C294.399 613.576 294.16 613.526 293.876 613.493C293.592 613.46 293.348 613.444 293.145 613.444C292.761 613.444 292.416 613.531 292.108 613.706C291.805 613.877 291.566 614.118 291.39 614.431C291.215 614.739 291.128 615.101 291.128 615.517V621.199H287.207ZM302.834 610.29V613.131H295.646V610.29H302.834ZM297.039 607.676H300.959V617.691C300.959 617.842 300.985 617.97 301.037 618.074C301.089 618.174 301.17 618.249 301.279 618.301C301.387 618.349 301.527 618.373 301.698 618.373C301.816 618.373 301.953 618.358 302.11 618.33C302.271 618.301 302.389 618.278 302.465 618.259L303.033 621.015C302.858 621.067 302.607 621.131 302.28 621.206C301.958 621.282 301.574 621.332 301.129 621.355C300.23 621.403 299.475 621.31 298.864 621.078C298.253 620.842 297.794 620.47 297.486 619.963C297.178 619.457 297.029 618.822 297.039 618.06V607.676ZM309.544 621.398C308.379 621.398 307.375 621.176 306.532 620.73C305.694 620.281 305.048 619.637 304.594 618.799C304.144 617.956 303.919 616.947 303.919 615.773C303.919 614.646 304.146 613.661 304.601 612.819C305.055 611.976 305.697 611.32 306.525 610.851C307.354 610.382 308.332 610.148 309.459 610.148C310.282 610.148 311.028 610.276 311.696 610.532C312.363 610.787 312.934 611.159 313.407 611.647C313.881 612.13 314.246 612.717 314.501 613.408C314.757 614.099 314.885 614.878 314.885 615.745V616.654H305.14V614.495H311.277C311.272 614.182 311.192 613.908 311.035 613.671C310.884 613.429 310.678 613.242 310.417 613.11C310.162 612.972 309.871 612.904 309.544 612.904C309.227 612.904 308.935 612.972 308.67 613.11C308.405 613.242 308.192 613.427 308.031 613.664C307.875 613.9 307.792 614.177 307.782 614.495V616.824C307.782 617.175 307.856 617.487 308.003 617.762C308.149 618.036 308.36 618.252 308.635 618.408C308.909 618.564 309.241 618.642 309.629 618.642C309.899 618.642 310.145 618.605 310.368 618.529C310.595 618.453 310.789 618.344 310.95 618.202C311.111 618.055 311.229 617.88 311.305 617.676H314.885C314.762 618.434 314.47 619.092 314.011 619.651C313.552 620.205 312.943 620.636 312.186 620.944C311.433 621.247 310.552 621.398 309.544 621.398ZM320.433 621.341C319.657 621.341 318.942 621.138 318.289 620.73C317.64 620.323 317.119 619.705 316.726 618.877C316.338 618.048 316.144 617.004 316.144 615.745C316.144 614.428 316.347 613.358 316.754 612.534C317.166 611.711 317.697 611.107 318.345 610.723C318.999 610.34 319.685 610.148 320.405 610.148C320.945 610.148 321.418 610.243 321.825 610.432C322.233 610.617 322.574 610.865 322.848 611.178C323.123 611.486 323.331 611.824 323.473 612.194H323.53V606.654H327.45V621.199H323.558V619.409H323.473C323.322 619.779 323.104 620.11 322.82 620.404C322.54 620.693 322.199 620.922 321.797 621.093C321.399 621.258 320.945 621.341 320.433 621.341ZM321.882 618.33C322.242 618.33 322.55 618.226 322.806 618.017C323.066 617.804 323.265 617.506 323.402 617.123C323.544 616.734 323.615 616.275 323.615 615.745C323.615 615.205 323.544 614.743 323.402 614.36C323.265 613.971 323.066 613.676 322.806 613.472C322.55 613.264 322.242 613.159 321.882 613.159C321.522 613.159 321.215 613.264 320.959 613.472C320.708 613.676 320.514 613.971 320.377 614.36C320.244 614.743 320.178 615.205 320.178 615.745C320.178 616.284 320.244 616.748 320.377 617.137C320.514 617.52 320.708 617.816 320.959 618.025C321.215 618.228 321.522 618.33 321.882 618.33Z" fill="white"/>
<path d="M355.103 614.665L351.384 618.384C351.127 618.641 350.712 618.641 350.457 618.384L349.839 617.766C349.582 617.509 349.582 617.094 349.839 616.839L352.475 614.203L349.839 611.567C349.582 611.31 349.582 610.895 349.839 610.64L350.454 610.017C350.712 609.76 351.127 609.76 351.381 610.017L355.1 613.736C355.36 613.993 355.36 614.408 355.103 614.665Z" fill="white"/>
<defs>
<linearGradient id="paint0_linear_1_29" x1="1126.31" y1="-315.139" x2="391.69" y2="1066.48" gradientUnits="userSpaceOnUse">
<stop stop-color="white" stop-opacity="0"/>
<stop offset="0.46" stop-color="white"/>
</linearGradient>
<radialGradient id="paint1_radial_1_29" cx="0" cy="0" r="1" gradientUnits="userSpaceOnUse" gradientTransform="translate(624.6 616.099) scale(1255.9 1255.9)">
<stop stop-color="#449AFF"/>
<stop offset="0.19" stop-color="white" stop-opacity="0"/>
</radialGradient>
<radialGradient id="paint2_radial_1_29" cx="0" cy="0" r="1" gradientUnits="userSpaceOnUse" gradientTransform="translate(1335 22.5402) scale(1700.13 1700.13)">
<stop stop-color="white"/>
<stop offset="0.15" stop-color="white" stop-opacity="0"/>
</radialGradient>
<radialGradient id="paint3_radial_1_29" cx="0" cy="0" r="1" gradientUnits="userSpaceOnUse" gradientTransform="translate(567 112.701) scale(1317.18 1317.18)">
<stop stop-color="#03234C" stop-opacity="0.37"/>
<stop offset="0.26" stop-color="white" stop-opacity="0"/>
</radialGradient>
<radialGradient id="paint4_radial_1_29" cx="0" cy="0" r="1" gradientUnits="userSpaceOnUse" gradientTransform="translate(1335 413.237) scale(1590.62 1590.62)">
<stop stop-color="#03234C"/>
<stop offset="0.25" stop-color="white" stop-opacity="0"/>
</radialGradient>
</defs>
</svg>
